<?xml version="1.0" encoding="UTF-8" standalone="no"?>
<svg
   width="40"
   height="40"
   version="1.1"
   id="svg74"
   sodipodi:docname="pluginIcon.svg"
   xml:space="preserve"
   inkscape:version="1.2.1 (9c6d41e410, 2022-07-14)"
   xmlns:inkscape="http://www.inkscape.org/namespaces/inkscape"
   xmlns:sodipodi="http://sodipodi.sourceforge.net/DTD/sodipodi-0.dtd"
   xmlns:xlink="http://www.w3.org/1999/xlink"
   xmlns="http://www.w3.org/2000/svg"
   xmlns:svg="http://www.w3.org/2000/svg"><defs
     id="defs78"><linearGradient
       inkscape:collect="always"
       xlink:href="#svg_13"
       id="linearGradient238"
       x1="1.4614673"
       y1="27.697737"
       x2="10.550508"
       y2="34.668656"
       gradientTransform="scale(0.94264188,1.0608483)"
       gradientUnits="userSpaceOnUse" /><linearGradient
       inkscape:collect="always"
       xlink:href="#svg_11"
       id="linearGradient240"
       x1="4.7602401"
       y1="1.33531"
       x2="6.4152465"
       y2="1.33531"
       gradientUnits="userSpaceOnUse" /><defs
       id="defs40"><linearGradient
         y2="21.766756"
         x2="31.108013"
         y1="20.301693"
         x1="27.361"
         id="svg_14"
         gradientTransform="scale(1.263229,0.79162212)"
         gradientUnits="userSpaceOnUse"><stop
           stop-color="#767676"
           offset="0"
           id="stop12" /><stop
           offset="1"
           id="stop14" /></linearGradient><linearGradient
         y2="0.80706"
         x2="0.93487"
         y1="0.17866"
         x1="0.11553"
         id="svg_13"><stop
           stop-color="#0079b9"
           offset="0"
           id="stop17" /><stop
           offset="1"
           id="stop19" /></linearGradient><linearGradient
         xlink:href="#svg_13"
         gradientTransform="scale(0.57081819,1.7518713)"
         y2="-1777.9491"
         x2="-188.72015"
         y1="-1777.7143"
         x1="-189.14592"
         id="svg_12"
         gradientUnits="userSpaceOnUse" /><linearGradient
         y2="0.5"
         x2="0.9994"
         y1="0.5"
         x1="0"
         id="svg_11"><stop
           stop-color="#595959"
           offset="0"
           id="stop23" /><stop
           stop-color="#6e6e6e"
           offset="0.087"
           id="stop25" /><stop
           stop-color="#8c8c8c"
           offset="0.242"
           id="stop27" /><stop
           stop-color="#a4a4a4"
           offset="0.405"
           id="stop29" /><stop
           stop-color="#b5b5b5"
           offset="0.577"
           id="stop31" /><stop
           stop-color="#bfbfbf"
           offset="0.765"
           id="stop33" /><stop
           stop-color="#c2c2c2"
           offset="1"
           id="stop35" /></linearGradient><linearGradient
         xlink:href="#svg_11"
         y2="43.749486"
         x2="43.725815"
         y1="43.749486"
         x1="40.985137"
         id="svg_10"
         gradientUnits="userSpaceOnUse" /><linearGradient
         xlink:href="#svg_11"
         y2="43.749486"
         x2="60.059218"
         y1="43.749486"
         x1="57.316882"
         id="svg_9"
         gradientUnits="userSpaceOnUse" /></defs><linearGradient
       inkscape:collect="always"
       id="linearGradient3762"><stop
         style="stop-color:#555753;stop-opacity:1;"
         offset="0"
         id="stop3764" /><stop
         style="stop-color:#555753;stop-opacity:0;"
         offset="1"
         id="stop3766" /></linearGradient><linearGradient
       id="linearGradient5459"><stop
         style="stop-color:#8a0909;stop-opacity:1;"
         offset="0"
         id="stop5461" /><stop
         style="stop-color:#ff0606;stop-opacity:1;"
         offset="1"
         id="stop5463" /></linearGradient><linearGradient
       id="linearGradient5349"><stop
         style="stop-color:#9ee757;stop-opacity:1;"
         offset="0"
         id="stop5351" /><stop
         style="stop-color:#8ae234;stop-opacity:0;"
         offset="1"
         id="stop5353" /></linearGradient><linearGradient
       inkscape:collect="always"
       id="linearGradient5299"><stop
         style="stop-color:#000000;stop-opacity:1;"
         offset="0"
         id="stop5301" /><stop
         style="stop-color:#000000;stop-opacity:0;"
         offset="1"
         id="stop5303" /></linearGradient><linearGradient
       id="linearGradient3717"><stop
         style="stop-color:#fdf09f;stop-opacity:1;"
         offset="0"
         id="stop3719" /><stop
         style="stop-color:#edd400;stop-opacity:1;"
         offset="1"
         id="stop3721" /></linearGradient><linearGradient
       id="linearGradient3707"><stop
         style="stop-color:#4e9a06;stop-opacity:1;"
         offset="0"
         id="stop3709" /><stop
         style="stop-color:#b3ff69;stop-opacity:1;"
         offset="1"
         id="stop3711" /></linearGradient><inkscape:perspective
       sodipodi:type="inkscape:persp3d"
       inkscape:vp_x="0 : 32 : 1"
       inkscape:vp_y="0 : 1000 : 0"
       inkscape:vp_z="64 : 32 : 1"
       inkscape:persp3d-origin="32 : 21.333333 : 1"
       id="perspective24" /><linearGradient
       id="linearGradient12062"><stop
         style="stop-color:#3a7203;stop-opacity:1;"
         offset="0"
         id="stop12064" /><stop
         style="stop-color:#63cb00;stop-opacity:1;"
         offset="1"
         id="stop12066" /></linearGradient><linearGradient
       inkscape:collect="always"
       xlink:href="#linearGradient12062"
       id="linearGradient1331"
       gradientUnits="userSpaceOnUse"
       gradientTransform="matrix(-0.137093,-0.08562126,0.04006067,-0.11529,58.51735,124.4617)"
       x1="261.10654"
       y1="596.23297"
       x2="376.86255"
       y2="651.20325" /><inkscape:perspective
       id="perspective3609"
       inkscape:persp3d-origin="0.5 : 0.33333333 : 1"
       inkscape:vp_z="1 : 0.5 : 1"
       inkscape:vp_y="0 : 1000 : 0"
       inkscape:vp_x="0 : 0.5 : 1"
       sodipodi:type="inkscape:persp3d" /><inkscape:perspective
       id="perspective3633"
       inkscape:persp3d-origin="0.5 : 0.33333333 : 1"
       inkscape:vp_z="1 : 0.5 : 1"
       inkscape:vp_y="0 : 1000 : 0"
       inkscape:vp_x="0 : 0.5 : 1"
       sodipodi:type="inkscape:persp3d" /><inkscape:perspective
       id="perspective3655"
       inkscape:persp3d-origin="0.5 : 0.33333333 : 1"
       inkscape:vp_z="1 : 0.5 : 1"
       inkscape:vp_y="0 : 1000 : 0"
       inkscape:vp_x="0 : 0.5 : 1"
       sodipodi:type="inkscape:persp3d" /><inkscape:perspective
       id="perspective3681"
       inkscape:persp3d-origin="0.5 : 0.33333333 : 1"
       inkscape:vp_z="1 : 0.5 : 1"
       inkscape:vp_y="0 : 1000 : 0"
       inkscape:vp_x="0 : 0.5 : 1"
       sodipodi:type="inkscape:persp3d" /><radialGradient
       inkscape:collect="always"
       xlink:href="#linearGradient3717"
       id="radialGradient3723"
       cx="14.509764"
       cy="48.470379"
       fx="14.509764"
       fy="48.470379"
       r="4.67172"
       gradientTransform="matrix(0.97196324,0.04893113,-0.14264374,2.8334611,6.6642326,-90.371694)"
       gradientUnits="userSpaceOnUse" /><inkscape:perspective
       id="perspective3823"
       inkscape:persp3d-origin="0.5 : 0.33333333 : 1"
       inkscape:vp_z="1 : 0.5 : 1"
       inkscape:vp_y="0 : 1000 : 0"
       inkscape:vp_x="0 : 0.5 : 1"
       sodipodi:type="inkscape:persp3d" /><linearGradient
       inkscape:collect="always"
       xlink:href="#linearGradient5299"
       id="linearGradient5309"
       x1="24.4375"
       y1="13.75"
       x2="24.3125"
       y2="22.75"
       gradientUnits="userSpaceOnUse" /><inkscape:perspective
       id="perspective5335"
       inkscape:persp3d-origin="0.5 : 0.33333333 : 1"
       inkscape:vp_z="1 : 0.5 : 1"
       inkscape:vp_y="0 : 1000 : 0"
       inkscape:vp_x="0 : 0.5 : 1"
       sodipodi:type="inkscape:persp3d" /><inkscape:perspective
       id="perspective5401"
       inkscape:persp3d-origin="0.5 : 0.33333333 : 1"
       inkscape:vp_z="1 : 0.5 : 1"
       inkscape:vp_y="0 : 1000 : 0"
       inkscape:vp_x="0 : 0.5 : 1"
       sodipodi:type="inkscape:persp3d" /><radialGradient
       inkscape:collect="always"
       xlink:href="#linearGradient5349"
       id="radialGradient5355-5"
       cx="27.479792"
       cy="31.535398"
       fx="27.479792"
       fy="31.535398"
       r="16.170935"
       gradientTransform="matrix(-0.51275856,1.2093067,-1.1941468,-0.5063306,103.35319,15.51265)"
       gradientUnits="userSpaceOnUse" /><radialGradient
       r="16.170935"
       fy="31.535398"
       fx="27.479792"
       cy="31.535398"
       cx="27.479792"
       gradientTransform="matrix(-0.51275856,1.2093067,-1.1941468,-0.5063306,79.421364,14.775085)"
       gradientUnits="userSpaceOnUse"
       id="radialGradient5410"
       xlink:href="#linearGradient5349"
       inkscape:collect="always" /><radialGradient
       inkscape:collect="always"
       xlink:href="#linearGradient5349"
       id="radialGradient5437"
       cx="48.103172"
       cy="37.476719"
       fx="48.103172"
       fy="37.476719"
       r="15.728359"
       gradientTransform="matrix(0.30044954,0.37052027,-0.96278616,0.78070947,45.748818,-11.219064)"
       gradientUnits="userSpaceOnUse" /><linearGradient
       inkscape:collect="always"
       xlink:href="#linearGradient5459"
       id="linearGradient5465"
       x1="23.125"
       y1="-0.8125"
       x2="25.867195"
       y2="10.482995"
       gradientUnits="userSpaceOnUse" /><inkscape:perspective
       id="perspective5475"
       inkscape:persp3d-origin="0.5 : 0.33333333 : 1"
       inkscape:vp_z="1 : 0.5 : 1"
       inkscape:vp_y="0 : 1000 : 0"
       inkscape:vp_x="0 : 0.5 : 1"
       sodipodi:type="inkscape:persp3d" /><linearGradient
       inkscape:collect="always"
       xlink:href="#linearGradient5459"
       id="linearGradient5465-5"
       x1="23.125"
       y1="-0.8125"
       x2="30.375"
       y2="9.6875"
       gradientUnits="userSpaceOnUse" /><linearGradient
       gradientTransform="translate(18.421875,47.203125)"
       y2="9.9526653"
       x2="25.160088"
       y1="0.071383454"
       x1="21.710787"
       gradientUnits="userSpaceOnUse"
       id="linearGradient5484"
       xlink:href="#linearGradient5459"
       inkscape:collect="always" /><inkscape:perspective
       id="perspective5475-6"
       inkscape:persp3d-origin="0.5 : 0.33333333 : 1"
       inkscape:vp_z="1 : 0.5 : 1"
       inkscape:vp_y="0 : 1000 : 0"
       inkscape:vp_x="0 : 0.5 : 1"
       sodipodi:type="inkscape:persp3d" /><linearGradient
       gradientTransform="translate(6.515625,56.140625)"
       y2="9.9526653"
       x2="25.778807"
       y1="0.15977183"
       x1="21.799175"
       gradientUnits="userSpaceOnUse"
       id="linearGradient5484-0"
       xlink:href="#linearGradient5459"
       inkscape:collect="always" /><inkscape:perspective
       id="perspective5475-5"
       inkscape:persp3d-origin="0.5 : 0.33333333 : 1"
       inkscape:vp_z="1 : 0.5 : 1"
       inkscape:vp_y="0 : 1000 : 0"
       inkscape:vp_x="0 : 0.5 : 1"
       sodipodi:type="inkscape:persp3d" /><linearGradient
       gradientTransform="translate(-15.640625,24.859375)"
       y2="10.21783"
       x2="26.927855"
       y1="-0.8125"
       x1="23.125"
       gradientUnits="userSpaceOnUse"
       id="linearGradient5484-1"
       xlink:href="#linearGradient5459"
       inkscape:collect="always" /><inkscape:perspective
       id="perspective2892"
       inkscape:persp3d-origin="0.5 : 0.33333333 : 1"
       inkscape:vp_z="1 : 0.5 : 1"
       inkscape:vp_y="0 : 1000 : 0"
       inkscape:vp_x="0 : 0.5 : 1"
       sodipodi:type="inkscape:persp3d" /><radialGradient
       r="16.170935"
       fy="31.535398"
       fx="27.479792"
       cy="31.535398"
       cx="27.479792"
       gradientTransform="matrix(-0.51275856,1.2093067,-1.1941468,-0.5063306,79.421364,14.775085)"
       gradientUnits="userSpaceOnUse"
       id="radialGradient5410-0"
       xlink:href="#linearGradient5349"
       inkscape:collect="always" /><inkscape:perspective
       id="perspective3702"
       inkscape:persp3d-origin="0.5 : 0.33333333 : 1"
       inkscape:vp_z="1 : 0.5 : 1"
       inkscape:vp_y="0 : 1000 : 0"
       inkscape:vp_x="0 : 0.5 : 1"
       sodipodi:type="inkscape:persp3d" /><inkscape:perspective
       id="perspective3724"
       inkscape:persp3d-origin="0.5 : 0.33333333 : 1"
       inkscape:vp_z="1 : 0.5 : 1"
       inkscape:vp_y="0 : 1000 : 0"
       inkscape:vp_x="0 : 0.5 : 1"
       sodipodi:type="inkscape:persp3d" /><linearGradient
       inkscape:collect="always"
       xlink:href="#linearGradient3762"
       id="linearGradient3768"
       x1="27.261795"
       y1="41.045513"
       x2="37.259476"
       y2="56.670513"
       gradientUnits="userSpaceOnUse" /><linearGradient
       inkscape:collect="always"
       xlink:href="#linearGradient3762"
       id="linearGradient3776"
       x1="12.754388"
       y1="53.930176"
       x2="17.885197"
       y2="61.680176"
       gradientUnits="userSpaceOnUse"
       gradientTransform="translate(-0.25,0.375)" /><inkscape:perspective
       id="perspective3786"
       inkscape:persp3d-origin="0.5 : 0.33333333 : 1"
       inkscape:vp_z="1 : 0.5 : 1"
       inkscape:vp_y="0 : 1000 : 0"
       inkscape:vp_x="0 : 0.5 : 1"
       sodipodi:type="inkscape:persp3d" /></defs><sodipodi:namedview
     id="namedview76"
     pagecolor="#ffffff"
     bordercolor="#000000"
     borderopacity="0.25"
     inkscape:showpageshadow="2"
     inkscape:pageopacity="0.0"
     inkscape:pagecheckerboard="0"
     inkscape:deskcolor="#d1d1d1"
     showgrid="false"
     inkscape:zoom="18.575"
     inkscape:cx="20.053836"
     inkscape:cy="19.919246"
     inkscape:window-width="3840"
     inkscape:window-height="2059"
     inkscape:window-x="0"
     inkscape:window-y="0"
     inkscape:window-maximized="1"
     inkscape:current-layer="svg74" /><!-- Created with Method Draw - http://github.com/duopixel/Method-Draw/ --><g
     id="g8"><title
       id="title2">background</title><rect
       fill="none"
       id="canvas_background"
       height="42"
       width="42"
       y="-1"
       x="-1" /><g
       display="none"
       overflow="visible"
       y="0"
       x="0"
       height="100%"
       width="100%"
       id="canvasGrid"><rect
         fill="url(#gridpattern)"
         stroke-width="0"
         y="1"
         x="1"
         height="600"
         width="800"
         id="rect5" /></g></g><g
     stroke="null"
     id="svg_40"><polygon
       stroke="null"
       id="svg_16"
       fill="#1c0a42"
       points="28.135771,33.824627 18.353518,27.248408 26.117708,22.672552 35.894257,29.324877 " /><path
       stroke="null"
       id="svg_17"
       d="m 28.13007,34.00903 -0.07844,-0.05268 -9.99048,-6.71671 8.06227,-4.75145 10.06322,6.84841 -8.05656,4.67243 z m -9.48418,-6.75037 9.49559,6.38307 7.46041,-4.32709 -9.49131,-6.45478 -7.46469,4.39879 z" /><polygon
       stroke="null"
       id="svg_18"
       fill="url(#svg_14)"
       points="35.7659,18.598624 31.691271,15.904623 34.811783,13.94668 39.114597,16.409472 "
       style="fill:url(#svg_14)" /><path
       stroke="null"
       id="svg_19"
       d="m 35.76448,18.78448 -4.3613,-2.88277 3.40432,-2.13647 4.60375,2.63401 -3.64677,2.38524 z m -3.78512,-2.87692 3.78654,2.50377 3.0492,-1.99014 -3.99334,-2.29012 z" /><polygon
       stroke="null"
       id="svg_20"
       fill="#ffbd3f"
       points="19.855295,33.730984 10.073045,27.154753 17.835808,22.577437 27.613781,29.231226 " /><path
       stroke="null"
       id="svg_21"
       d="m 19.84959,33.91392 -0.07844,-0.05268 -9.99048,-6.71525 8.05799,-4.75292 10.06322,6.84841 -8.05228,4.67243 z m -9.48418,-6.75037 9.49559,6.37868 7.46041,-4.32709 -9.48989,-6.4577 -7.46612,4.40611 z" /><polygon
       stroke="null"
       id="svg_22"
       fill="#a11f40"
       points="10.817513,33.840721 0.32216331,27.02891 8.5541458,22.810107 18.486153,29.248785 " /><path
       stroke="null"
       id="svg_23"
       d="M 10.81466,34.02367 0.01125,27.01283 8.56841,22.62282 18.78565,29.24734 Z M 0.63307,27.04502 10.82179,33.65637 18.19235,29.24295 8.54558,22.99011 0.63306,27.04502 Z" /><polygon
       stroke="null"
       id="svg_24"
       fill="url(#svg_13)"
       points="10.626405,39.048725 0.16956119,32.125712 0.16956119,27.280604 10.626405,33.856827 "
       style="fill:url(#linearGradient238)" /><path
       stroke="null"
       id="svg_25"
       d="M 10.77901,39.33704 0.01126,32.21206 v -5.2124 l 10.76775,6.76939 z M 0.32217,32.04084 10.47381,38.76048 V 33.94464 L 0.32217,27.56157 Z" /><polygon
       stroke="null"
       id="svg_26"
       fill="url(#svg_12)"
       points="35.678902,28.904906 31.488749,26.147978 31.488749,16.045103 35.678902,18.79471 "
       style="fill:url(#svg_12)" /><path
       stroke="null"
       id="svg_27"
       d="m 35.75592,29.04832 -4.34276,-2.8579 V 15.9017 l 4.34276,2.84912 z m -4.19015,-2.94423 4.03755,2.65596 v -9.92288 l -4.03755,-2.64864 v 9.91557 z" /><polygon
       stroke="null"
       id="svg_28"
       fill="#ffffff"
       points="39.251514,16.677264 39.251514,39.174572 37.564331,39.174572 10.915921,39.174572 10.915921,33.98267 18.674414,29.482924 19.671318,33.98267 19.687008,33.98267 27.782076,29.482924 28.379656,33.98267 28.456663,33.98267 35.878567,29.482924 35.878567,18.753741 " /><path
       stroke="null"
       id="svg_29"
       d="m 39.40412,39.33119 h -28.6408 v -5.44068 l 8.0152,-4.64902 0.99833,4.51147 8.1293,-4.51732 0.60185,4.53634 7.21796,-4.37684 V 18.66449 l 3.67958,-2.26524 -0.0014,22.93194 z M 11.06852,39.01657 H 39.09891 V 16.95385 l -3.06774,1.8877 v 10.72918 l -0.07559,0.04536 -7.45756,4.52171 h -0.24816 l -0.58617,-4.4105 -7.93534,4.4105 h -0.17827 l -0.97837,-4.41635 -7.50177,4.3505 -0.0014,4.94461 z" /><rect
       stroke="null"
       transform="matrix(1.4261927,0,0,1.4633364,7.9918882,33.004735)"
       id="svg_30"
       fill="url(#svg_11)"
       ry="0.215"
       rx="0.215"
       height="1.656"
       width="1.656"
       y="0.50730997"
       x="4.7602401"
       style="fill:url(#linearGradient240)" /><path
       stroke="null"
       id="svg_31"
       d="m 16.84033,36.32257 h -1.75422 a 0.45923,0.47119 0 0 1 -0.45923,-0.47119 v -1.78966 a 0.45923,0.47119 0 0 1 0.45923,-0.47119 h 1.75422 a 0.45923,0.47119 0 0 1 0.45923,0.47119 v 1.79405 a 0.45923,0.47119 0 0 1 -0.45923,0.4668 z m -1.75422,-2.41889 a 0.15403,0.15804 0 0 0 -0.1526,0.15658 v 1.79405 a 0.15403,0.15804 0 0 0 0.1526,0.15658 h 1.75422 a 0.15403,0.15804 0 0 0 0.1526,-0.15658 v -1.79259 a 0.15403,0.15804 0 0 0 -0.1526,-0.15658 z" /><rect
       stroke="null"
       transform="matrix(1.4261927,0,0,1.4633364,7.9918882,33.004735)"
       id="svg_32"
       fill="url(#svg_10)"
       ry="0.215"
       rx="0.215"
       height="1.656"
       width="1.656"
       y="0.41031"
       x="10.69524"
       style="fill:url(#svg_10)" /><path
       stroke="null"
       id="svg_33"
       d="m 25.3005,36.18501 h -1.74994 a 0.45923,0.47119 0 0 1 -0.45923,-0.47119 v -1.79405 a 0.45923,0.47119 0 0 1 0.45923,-0.47119 h 1.74851 a 0.45923,0.47119 0 0 1 0.45923,0.47119 v 1.79405 a 0.45923,0.47119 0 0 1 -0.45781,0.47119 z m -1.74851,-2.42328 a 0.15403,0.15804 0 0 0 -0.1526,0.15658 v 1.79405 a 0.15403,0.15804 0 0 0 0.1526,0.15658 h 1.74851 a 0.15403,0.15804 0 0 0 0.1526,-0.15658 v -1.79259 a 0.15403,0.15804 0 0 0 -0.1526,-0.15658 z" /><rect
       stroke="null"
       transform="matrix(1.4261927,0,0,1.4633364,7.9918882,33.004735)"
       id="svg_34"
       fill="url(#svg_9)"
       ry="0.215"
       rx="0.215"
       height="1.656"
       width="1.656"
       y="0.41031"
       x="16.84424"
       style="fill:url(#svg_9)" /><path
       stroke="null"
       id="svg_35"
       d="m 34.07016,36.18501 h -1.74851 a 0.45923,0.47119 0 0 1 -0.45923,-0.47119 v -1.79405 a 0.45923,0.47119 0 0 1 0.45923,-0.47119 h 1.74851 a 0.45923,0.47119 0 0 1 0.45923,0.47119 v 1.79405 a 0.45923,0.47119 0 0 1 -0.45923,0.47119 z m -1.74851,-2.42328 a 0.15403,0.15804 0 0 0 -0.1526,0.15658 v 1.79405 a 0.15403,0.15804 0 0 0 0.1526,0.15658 h 1.74851 a 0.15403,0.15804 0 0 0 0.1526,-0.15658 v -1.79259 a 0.15403,0.15804 0 0 0 -0.1526,-0.15658 z" /><path
       stroke="null"
       id="svg_36"
       fill="#ea2d2e"
       d="M 35.9727,12.95309 C 35.89854,13.05406 35.37798,12.5697 35.0414,12.18338 A 6.28666,6.45039 0 0 1 34.30548,11.11514 3.7081,3.80467 0 0 1 33.81202,9.98252 3.36296,3.45055 0 0 1 33.73786,8.98452 4.2201,4.33001 0 0 1 33.92184,7.88848 4.4811,4.5978 0 0 1 35.04425,6.12223 22.15162,22.72854 0 0 0 36.87406,4.07356 4.367,4.48074 0 0 0 37.55721,2.71705 5.67482,5.82262 0 0 0 37.77257,1.4659 c 0.0271,-0.53265 -0.03565,-0.86776 0.0328,-0.89703 0.06845,-0.02927 0.30663,0.40095 0.40932,0.82532 a 4.51675,4.63439 0 0 1 -0.6532,3.07301 9.84073,10.09702 0 0 1 -1.56025,2.11891 3.99334,4.09734 0 0 0 -1.21084,1.80576 3.51699,3.60859 0 0 0 -0.12265,1.00531 4.94176,5.07046 0 0 0 0.67887,2.25646 c 0.41074,0.83703 0.68457,1.21896 0.6261,1.29944 z" /><path
       stroke="null"
       id="svg_37"
       d="m 35.94133,13.00577 c -0.17685,0 -0.70169,-0.53412 -0.92845,-0.79605 A 6.38649,6.55282 0 0 1 34.27126,11.13563 3.74803,3.84565 0 0 1 33.7778,9.99276 3.38721,3.47542 0 0 1 33.70221,8.98306 4.2472,4.35782 0 0 1 33.88762,7.87678 4.57523,4.69438 0 0 1 35.01859,6.09736 C 35.43789,5.613 35.73169,5.32472 35.95845,5.09351 A 6.26526,6.42844 0 0 0 36.84554,4.05308 4.35274,4.4661 0 0 0 37.52441,2.70827 5.63489,5.78164 0 0 0 37.73834,1.4659 c 0.01141,-0.23267 0,-0.43022 0,-0.57509 0,-0.23267 -0.0086,-0.32925 0.0542,-0.35559 a 0.07131,0.07317 0 0 1 0.06133,0 1.74851,1.79405 0 0 1 0.39933,0.84727 4.51675,4.63439 0 0 1 -0.65605,3.10374 9.88066,10.13799 0 0 1 -1.56881,2.12623 C 35.9499,6.70026 35.87288,6.78221 35.7973,6.86269 a 3.28024,3.36567 0 0 0 -0.97124,1.53943 3.5227,3.61444 0 0 0 -0.11695,0.98483 4.93177,5.06022 0 0 0 0.67459,2.2389 c 0.16259,0.33803 0.30663,0.60728 0.41217,0.80337 0.18398,0.34388 0.25386,0.47266 0.20252,0.53997 v 0 a 0.07274,0.07463 0 0 1 -0.05705,0.02927 v 0.0073 z M 37.82248,0.61716 a 1.2308,1.26286 0 0 0 0,0.27803 c 0,0.14633 0.01,0.34535 0,0.58533 A 5.73472,5.88408 0 0 1 37.6057,2.74045 4.42975,4.54512 0 0 1 36.91685,4.10721 6.32802,6.49282 0 0 1 36.01977,5.15935 c -0.23104,0.23121 -0.51913,0.51802 -0.93701,0.99946 a 4.51818,4.63585 0 0 0 -1.11528,1.756 4.18302,4.29197 0 0 0 -0.18255,1.08726 3.3159,3.40226 0 0 0 0.07416,0.98775 3.69384,3.79004 0 0 0 0.48633,1.12238 6.30662,6.47087 0 0 0 0.73164,1.06092 2.9023,2.97789 0 0 0 0.8714,0.76971 1.68719,1.73113 0 0 0 -0.20965,-0.45363 c -0.10554,-0.19609 -0.24958,-0.46534 -0.4136,-0.8063 A 4.99167,5.12168 0 0 1 34.63636,9.39717 3.60827,3.70224 0 0 1 34.75616,8.39039 3.38721,3.47542 0 0 1 35.74594,6.8173 C 35.8201,6.73682 35.89712,6.65487 35.97556,6.56707 A 9.81078,10.06629 0 0 0 37.53011,4.45694 4.44829,4.56415 0 0 0 38.18045,1.40881 1.82695,1.87453 0 0 0 37.82248,0.61715 Z" /><path
       stroke="null"
       id="svg_38"
       fill="#ea2d2e"
       d="M 39.90472,5.42715 C 39.87762,5.29838 39.2886,5.36862 38.81226,5.53397 a 3.7081,3.80467 0 0 0 -1.51034,1.05653 3.99334,4.09734 0 0 0 -1.30639,2.71449 4.23864,4.34904 0 0 0 0.36796,1.55114 c 0.31519,0.83703 0.64892,1.13116 0.63323,1.79259 -0.01,0.439 -0.16259,0.70825 -0.06846,0.80337 0.09413,0.09512 0.44782,-0.14633 0.6589,-0.45802 a 2.56715,2.63401 0 0 0 0.36938,-1.49553 c -0.0656,-1.19262 -0.85572,-1.48529 -0.86713,-2.63401 a 2.64987,2.71888 0 0 1 0.18398,-0.98922 c 0.6318,-1.83063 2.68267,-2.20671 2.63133,-2.44816 z" /><path
       stroke="null"
       id="svg_39"
       d="m 36.99813,13.5194 a 0.13406,0.13755 0 0 1 -0.09841,-0.03805 c -0.0656,-0.06731 -0.04279,-0.17853 -0.0071,-0.34681 a 2.4502,2.51401 0 0 0 0.06418,-0.48436 1.95959,2.01062 0 0 0 -0.30521,-1.0536 7.13096,7.31668 0 0 1 -0.32517,-0.72435 4.25005,4.36074 0 0 1 -0.36938,-1.56577 4.0076,4.11198 0 0 1 1.31638,-2.74229 3.76515,3.86321 0 0 1 1.52603,-1.06677 2.11362,2.16866 0 0 1 1.09246,-0.14633 0.0927,0.09512 0 0 1 0.05277,0.06731 v 0 c 0.02139,0.10243 -0.13121,0.17706 -0.43641,0.32779 a 3.89351,3.99491 0 0 0 -2.19919,2.14086 2.60565,2.67352 0 0 0 -0.18113,0.97605 2.34609,2.40719 0 0 0 0.41502,1.29505 2.69408,2.76424 0 0 1 0.4521,1.33749 2.58711,2.65449 0 0 1 -0.37651,1.52041 1.15379,1.18384 0 0 1 -0.60043,0.50046 l -0.01997,0.0029 z m 2.69408,-8.12005 a 3.01925,3.09788 0 0 0 -0.86713,0.17121 3.69099,3.78711 0 0 0 -1.49465,1.04629 3.942,4.04466 0 0 0 -1.29641,2.68815 4.18588,4.29489 0 0 0 0.36511,1.5365 7.06678,7.25083 0 0 0 0.32089,0.71703 2.04373,2.09696 0 0 1 0.31376,1.09019 2.51723,2.58279 0 0 1 -0.06703,0.499 c -0.0271,0.13316 -0.04992,0.23852 -0.01284,0.27511 a 0.0656,0.06731 0 0 0 0.0542,0.01463 1.09674,1.12531 0 0 0 0.54481,-0.46827 2.55716,2.62376 0 0 0 0.36225,-1.47065 2.6299,2.69839 0 0 0 -0.44212,-1.30237 2.44022,2.50377 0 0 1 -0.42786,-1.3331 2.67696,2.74668 0 0 1 0.18541,-1.00385 3.95911,4.06222 0 0 1 2.2434,-2.1833 C 39.6537,5.58666 39.87761,5.47691 39.86906,5.43593 L 39.85765,5.42569 A 0.37651,0.38632 0 0 0 39.69221,5.39935 Z" /></g><g
     id="layer1"
     inkscape:label="Layer 1"
     transform="matrix(0.31380077,0,0,0.31380077,3.4497084,-2.1585426)"><path
       sodipodi:nodetypes="cssssc"
       d="m 1.879388,61.299054 c 2.5573584,-1.188085 4.8796629,-1.444372 6.1047431,-1.366566 2.0327189,0.129095 4.0838489,0.231789 5.8437909,0.22233 2.279367,-0.01223 4.042466,-0.483099 4.41005,-3.494031 0.05103,-0.41806 1.174288,-0.892973 0.8831,-1.189172 -0.878141,-0.893283 -4.226685,-2.423212 -5.108653,-3.785318"
       style="fill:url(#linearGradient3776);fill-opacity:1;fill-rule:evenodd;stroke:none"
       id="path1387-4-73" /><path
       style="color:#000000;font-style:normal;font-variant:normal;font-weight:normal;font-stretch:normal;font-size:medium;line-height:normal;font-family:'Andale Mono';-inkscape-font-specification:'Andale Mono';text-indent:0;text-align:start;text-decoration:none;text-decoration-line:none;letter-spacing:normal;word-spacing:normal;text-transform:none;writing-mode:lr-tb;direction:ltr;text-anchor:start;display:inline;overflow:visible;visibility:visible;fill:#cc0000;fill-opacity:1;stroke:#8c0000;stroke-width:1;stroke-miterlimit:4;stroke-dasharray:none;stroke-opacity:1;marker:none;enable-background:accumulate"
       d="m 29.90625,36.3125 -2.3125,2.40625 13.4375,12.875 2.3125,-2.40625 z"
       id="path1336" /><rect
       style="fill:#ac0000;fill-opacity:1;stroke:#a40000;stroke-width:2;stroke-linejoin:round;stroke-miterlimit:4;stroke-dasharray:none;stroke-opacity:1"
       id="rect1334"
       width="11.718976"
       height="5.8213487"
       x="35.351578"
       y="48.268574" /><path
       style="color:#000000;font-style:normal;font-variant:normal;font-weight:normal;font-stretch:normal;font-size:medium;line-height:normal;font-family:'Andale Mono';-inkscape-font-specification:'Andale Mono';text-indent:0;text-align:start;text-decoration:none;text-decoration-line:none;letter-spacing:normal;word-spacing:normal;text-transform:none;writing-mode:lr-tb;direction:ltr;text-anchor:start;display:inline;overflow:visible;visibility:visible;fill:#cc0000;fill-opacity:1;stroke:#8c0000;stroke-width:1;stroke-miterlimit:4;stroke-dasharray:none;stroke-opacity:1;marker:none;enable-background:accumulate"
       d="M 22.3125,21.71875 22.34375,35.25 H 25.6875 L 25.65625,21.71875 Z"
       id="path3123" /><rect
       style="fill:#ac0000;fill-opacity:1;stroke:#a40000;stroke-width:2;stroke-linejoin:round;stroke-miterlimit:4;stroke-dasharray:none;stroke-opacity:1"
       id="rect2242"
       width="14.065074"
       height="6.3563333"
       x="16.880175"
       y="17.017969" /><path
       style="color:#000000;font-style:normal;font-variant:normal;font-weight:normal;font-stretch:normal;font-size:medium;line-height:normal;font-family:'Andale Mono';-inkscape-font-specification:'Andale Mono';text-indent:0;text-align:start;text-decoration:none;text-decoration-line:none;letter-spacing:normal;word-spacing:normal;text-transform:none;writing-mode:lr-tb;direction:ltr;text-anchor:start;display:inline;overflow:visible;visibility:visible;fill:#cc0000;fill-opacity:1;stroke:#8c0000;stroke-width:1;stroke-miterlimit:4;stroke-dasharray:none;stroke-opacity:1;marker:none;enable-background:accumulate"
       d="m 27.90625,43.0625 -3.25,0.8125 3.625,15.03125 3.25,-0.78125 z"
       id="path4881" /><path
       sodipodi:nodetypes="cssccsscc"
       d="m 44.393421,34.902462 c -1.838706,0.176894 -12.107249,5.087759 -12.857695,5.411476 -0.750438,0.323718 -9.33386,4.746699 -12.046181,7.07642 -2.712321,2.329719 -3.228194,2.784533 -3.72775,5.220736 0.833317,0.843744 2.19559,2.171033 3.527189,2.944206 3.302387,-0.09213 3.843792,-0.424829 7.256818,-2.168531 3.413034,-1.743701 9.50838,-7.303541 10.025247,-7.822597 0.516875,-0.51906 9.448863,-8.878784 9.311866,-10.059615 -0.149847,-1.021559 -0.741198,-0.67833 -1.489494,-0.602095 z"
       style="fill:url(#linearGradient3768);fill-opacity:1;stroke:none"
       id="path1425-5-0-8-2" /><path
       style="color:#000000;font-style:normal;font-variant:normal;font-weight:normal;font-stretch:normal;font-size:medium;line-height:normal;font-family:'Andale Mono';-inkscape-font-specification:'Andale Mono';text-indent:0;text-align:start;text-decoration:none;text-decoration-line:none;letter-spacing:normal;word-spacing:normal;text-transform:none;writing-mode:lr-tb;direction:ltr;text-anchor:start;display:inline;overflow:visible;visibility:visible;fill:#cc0000;fill-opacity:1;stroke:#8c0000;stroke-width:1;stroke-miterlimit:4;stroke-dasharray:none;stroke-opacity:1;marker:none;enable-background:accumulate"
       d="m 7.375,26.15625 -2.3125,2.40625 13.46875,12.875 2.3125,-2.40625 z"
       id="path4883" /><rect
       style="fill:#ac0000;fill-opacity:1;stroke:#a40000;stroke-width:2;stroke-linejoin:round;stroke-miterlimit:4;stroke-dasharray:none;stroke-opacity:1"
       id="rect3121"
       width="14.065074"
       height="6.3563333"
       x="1.3107395"
       y="25.914906" /><path
       sodipodi:nodetypes="cssssc"
       d="m 1.0576693,61.154088 c 2.4127494,-1.459545 4.1690733,-2.161289 5.3953398,-2.217372 2.0346871,-0.09306 4.6362819,0.228201 6.3847239,0.02712 2.264476,-0.260408 4.39476,-1.596235 4.432232,-4.629291 0.0052,-0.42113 0.200252,-0.920257 -0.121454,-1.182981 -0.970206,-0.79233 -1.564987,-3.020736 -2.590058,-4.278683"
       style="fill:#edd400;fill-opacity:1;fill-rule:evenodd;stroke:#d39f00;stroke-width:1;stroke-linecap:butt;stroke-linejoin:miter;stroke-miterlimit:4;stroke-dasharray:none;stroke-opacity:1"
       id="path1387-4" /><path
       sodipodi:nodetypes="cssssc"
       d="m 1.1337398,61.211904 c 1.778096,-2.188608 2.7151666,-3.831476 2.9396934,-5.038316 0.3725491,-2.002453 0.412853,-4.623498 0.8529462,-6.327552 0.5699671,-2.206989 2.1866031,-4.132875 5.1958876,-3.752036 0.417829,0.05288 0.939072,-0.07153 1.154959,0.28331 0.651078,1.070133 2.135987,1.527276 3.240679,2.715912"
       style="fill:#fcec86;fill-opacity:1;fill-rule:evenodd;stroke:#d39f00;stroke-width:1;stroke-linecap:butt;stroke-linejoin:miter;stroke-miterlimit:4;stroke-dasharray:none;stroke-opacity:1"
       id="path1387-4-7" /><path
       sodipodi:nodetypes="cssssc"
       id="path1413"
       d="m 1.2129352,61.150947 c 0,0 5.9577051,-5.263371 6.5695812,-5.84047 0.53169,-0.501618 1.911088,-0.619032 2.5594866,-1.225127 0.482629,-0.45113 0.931261,-1.184786 0.540117,-1.717132 -0.391148,-0.53235 -1.1832764,-0.106192 -1.8316816,0.499901 -0.6484051,0.606098 -0.6214928,1.434014 -1.267922,2.442358"
       style="fill:#c4a000;fill-opacity:1;fill-rule:evenodd;stroke:#ac7f00;stroke-width:1;stroke-linecap:butt;stroke-linejoin:miter;stroke-miterlimit:4;stroke-dasharray:none;stroke-opacity:1" /><path
       sodipodi:nodetypes="csssccsssc"
       d="m 46.709557,22.706757 c 0,0 -0.419442,-0.494754 -1.13138,-0.820294 -1.778747,-0.813345 -12.79113,5.761534 -13.672116,6.218301 -0.880974,0.45677 -10.764051,6.228672 -13.861728,9.737475 -3.097677,3.508803 -3.655101,4.238073 -4.07601,8.099817 1.067966,1.420388 2.870067,3.780175 4.533756,5.128572 3.97616,0.124553 4.792825,-0.31405 8.779311,-2.826279 3.986496,-2.512229 11.203131,-11.273854 11.787835,-12.062814 0.584711,-0.788962 8.444352,-10.460808 8.191093,-12.363846 -0.0955,-0.717535 -0.702661,-1.273951 -0.702661,-1.273951"
       style="fill:#4e9a06;fill-opacity:1;fill-rule:evenodd;stroke:#506040;stroke-width:1;stroke-linecap:butt;stroke-linejoin:miter;stroke-miterlimit:4;stroke-dasharray:none;stroke-opacity:1"
       id="path1425" /><path
       sodipodi:nodetypes="cssccsscc"
       d="m 44.446242,22.179663 c -1.722099,0.271743 -12.692735,6.546055 -13.480851,6.946099 -0.788105,0.400047 -9.754344,5.955182 -12.525475,9.028255 -2.771132,3.073071 -3.54741,4.142738 -3.923949,7.524923 0.955385,1.244001 2.888738,3.642141 4.377046,4.823091 3.557008,0.109085 3.993978,-1.162405 7.560223,-3.362662 3.566254,-2.200254 10.022138,-9.623843 10.545204,-10.314827 0.523074,-0.690987 9.571623,-11.744611 9.345062,-13.411325 -0.229835,-1.44416 -1.282461,-1.224011 -1.89726,-1.233554 z"
       style="fill:url(#radialGradient5437);fill-opacity:1;fill-rule:evenodd;stroke:none"
       id="path1425-5" /><path
       sodipodi:nodetypes="ccssccssc"
       d="m 17.004028,53.26954 c -2.899342,-2.541639 -3.924179,-4.852332 -5.24037,-6.475208 -0.332388,-0.136049 -0.605784,-0.680658 -0.485099,-0.950017 0.411584,-0.918578 1.023174,-1.303162 2.119477,-0.982835 0.649378,0.189737 0.793785,0.836049 0.778048,0.997448 0.777341,1.168771 2.395086,3.469233 4.312889,5.310485 0.171038,0.02337 0.787658,0.338335 0.834849,0.998218 0.07968,1.114041 -0.439031,1.611913 -1.447726,1.802184 -0.295781,0.05578 -0.780269,-0.324011 -0.872068,-0.700275 z"
       style="fill:url(#radialGradient3723);fill-opacity:1;fill-rule:evenodd;stroke:#d39f00;stroke-width:1;stroke-linecap:butt;stroke-linejoin:miter;stroke-miterlimit:4;stroke-dasharray:none;stroke-opacity:1"
       id="path1399" /><rect
       style="fill:#ac0000;fill-opacity:1;stroke:#a40000;stroke-width:2;stroke-linejoin:round;stroke-miterlimit:4;stroke-dasharray:none;stroke-opacity:1"
       id="rect1328"
       width="11.718976"
       height="5.8213487"
       x="23.446585"
       y="57.197311" /><path
       sodipodi:nodetypes="cssccsscc"
       d="m 44.670666,22.879598 c -1.972099,0.115493 -12.723985,6.264805 -13.512101,6.664849 -0.788105,0.400047 -9.754344,5.986432 -12.525475,9.059505 -2.771132,3.073071 -3.29741,3.673988 -3.673949,7.056173 0.955385,1.244001 2.513738,3.204641 4.002046,4.385591 3.557008,0.109085 4.118978,-0.318655 7.685223,-2.518912 3.566254,-2.200254 9.772138,-9.561343 10.295204,-10.252327 0.523074,-0.690987 9.602873,-11.775861 9.376312,-13.442575 -0.229835,-1.44416 -0.844961,-1.005261 -1.64726,-0.952304 z"
       style="fill:none;stroke:url(#radialGradient5410);stroke-width:1;stroke-linecap:butt;stroke-linejoin:miter;stroke-miterlimit:4;stroke-dasharray:none;stroke-opacity:1"
       id="path1425-5-0" /><rect
       style="fill:none;stroke:url(#linearGradient5465);stroke-width:1;stroke-linejoin:round;stroke-miterlimit:4;stroke-dasharray:none;stroke-opacity:1"
       id="rect5457"
       width="12.96875"
       height="5.34375"
       x="17.4375"
       y="1.5312499"
       transform="translate(0,16)"
       ry="0" /><rect
       style="fill:none;stroke:url(#linearGradient5484);stroke-width:1;stroke-linejoin:round;stroke-miterlimit:4;stroke-dasharray:none;stroke-opacity:1"
       id="rect5457-8"
       width="10.6875"
       height="4.84375"
       x="35.859375"
       y="48.734375"
       ry="0" /><rect
       style="fill:none;stroke:url(#linearGradient5484-0);stroke-width:1;stroke-linejoin:round;stroke-miterlimit:4;stroke-dasharray:none;stroke-opacity:1"
       id="rect5457-9"
       width="10.6875"
       height="4.84375"
       x="23.953125"
       y="57.671875"
       ry="0" /><rect
       style="fill:none;stroke:url(#linearGradient5484-1);stroke-width:1;stroke-linejoin:round;stroke-miterlimit:4;stroke-dasharray:none;stroke-opacity:1"
       id="rect5457-1"
       width="12.96875"
       height="5.34375"
       x="1.796875"
       y="26.390625"
       ry="0" /></g></svg>
